<?xml version="1.0" encoding="UTF-8" standalone="no"?>
<!-- Generator: Adobe Illustrator 27.5.0, SVG Export Plug-In . SVG Version: 6.00 Build 0)  -->

<svg
   version="1.1"
   x="0px"
   y="0px"
   viewBox="0 0 750 500"
   style="enable-background:new 0 0 750 500;"
   xml:space="preserve"
   id="svg2935"
   sodipodi:docname="welcome.svg"
   inkscape:version="1.2.2 (732a01da63, 2022-12-09)"
   xmlns:inkscape="http://www.inkscape.org/namespaces/inkscape"
   xmlns:sodipodi="http://sodipodi.sourceforge.net/DTD/sodipodi-0.dtd"
   xmlns="http://www.w3.org/2000/svg"
   xmlns:svg="http://www.w3.org/2000/svg"><defs
   id="defs2939" /><sodipodi:namedview
   id="namedview2937"
   pagecolor="#505050"
   bordercolor="#eeeeee"
   borderopacity="1"
   inkscape:showpageshadow="0"
   inkscape:pageopacity="0"
   inkscape:pagecheckerboard="0"
   inkscape:deskcolor="#505050"
   showgrid="false"
   inkscape:zoom="2.9698485"
   inkscape:cx="364.83343"
   inkscape:cy="92.934034"
   inkscape:window-width="1366"
   inkscape:window-height="705"
   inkscape:window-x="-8"
   inkscape:window-y="-8"
   inkscape:window-maximized="1"
   inkscape:current-layer="g2891" />

<g
   id="OBJECTS">
	<g
   id="g2893">
		<g
   id="g2379">
			<path
   style="fill:#EDF3F9;"
   d="M459.049,450.888c0,0,19.531-64.357,106.353-23.812c34.726,16.217,46.125,4.105,57.815,2.612     c18.239-2.329,25.82,10.046,31.058,21.2H459.049z"
   id="path2305" />
			<path
   style="fill:#EDF3F9;"
   d="M305.79,450.888h52.53c0,0-29.762-56.827-71.284-57.38c-42.275-0.563-54.509,27.955-73.54,30.33     c-24.851,3.101-38.222-13.884-56.243-12.488c-36.23,2.806-53.5,39.537-53.5,39.537H305.79z"
   id="path2307" />
			<path
   style="fill:none;stroke:#99BFE3;stroke-linejoin:round;stroke-miterlimit:10;stroke-dasharray:3.5,3.5;"
   d="M454.9,76.801     h78.086c19.406,0,35.138,15.732,35.138,35.138l0,0c0,19.406-15.732,35.138-35.138,35.138h-352.01     c-24.771,0-44.852,20.081-44.852,44.852v0c0,24.771,20.081,44.852,44.852,44.852H609.98c24.932,0,45.143,20.211,45.143,45.143v0     c0,24.932-20.211,45.144-45.143,45.144H114.723c-14.275,0-25.847,11.572-25.847,25.847v0c0,14.275,11.572,25.847,25.847,25.847     h138.189"
   id="path2309" />
			<circle
   style="fill:#EDF3F9;"
   cx="152.471"
   cy="269.435"
   r="12.358"
   id="circle2311" />
			<circle
   style="fill:#EDF3F9;"
   cx="596.137"
   cy="303.327"
   r="7.323"
   id="circle2313" />
			<circle
   style="fill:none;stroke:#99BFE3;stroke-linejoin:round;stroke-miterlimit:10;"
   cx="126.128"
   cy="242.569"
   r="6.331"
   id="circle2315" />
			<circle
   style="fill:#EDF3F9;"
   cx="580.414"
   cy="127.519"
   r="3.376"
   id="circle2317" />
			<path
   style="fill:#EDF3F9;"
   d="M252.258,70.333c0,1.865-1.512,3.376-3.376,3.376c-1.865,0-3.376-1.512-3.376-3.376     c0-1.865,1.512-3.376,3.376-3.376C250.746,66.957,252.258,68.469,252.258,70.333z"
   id="path2319" />
			<path
   style="fill:none;stroke:#99BFE3;stroke-linejoin:round;stroke-miterlimit:10;"
   d="M627.37,264.751     c0,1.865-1.512,3.376-3.376,3.376c-1.865,0-3.376-1.512-3.376-3.376c0-1.865,1.512-3.376,3.376-3.376     C625.858,261.375,627.37,262.887,627.37,264.751z"
   id="path2321" />
			<path
   style="fill:none;stroke:#99BFE3;stroke-linejoin:round;stroke-miterlimit:10;"
   d="M151.162,357.698     c0,1.865-1.512,3.376-3.376,3.376c-1.865,0-3.376-1.512-3.376-3.376c0-1.865,1.512-3.376,3.376-3.376     C149.65,354.321,151.162,355.833,151.162,357.698z"
   id="path2323" />
			<path
   style="fill:none;stroke:#99BFE3;stroke-linejoin:round;stroke-miterlimit:10;"
   d="M597.92,372.378     c0,1.865-1.512,3.376-3.376,3.376c-1.865,0-3.376-1.512-3.376-3.376c0-1.865,1.512-3.376,3.376-3.376     C596.408,369.001,597.92,370.513,597.92,372.378z"
   id="path2325" />
			<path
   style="fill:none;stroke:#99BFE3;stroke-linejoin:round;stroke-miterlimit:10;"
   d="M541.156,99.692     c0,3.102-2.514,5.616-5.616,5.616c-3.102,0-5.616-2.515-5.616-5.616s2.515-5.616,5.616-5.616     C538.641,94.076,541.156,96.591,541.156,99.692z"
   id="path2327" />
			
				<line
   style="fill:none;stroke:#99BFE3;stroke-linejoin:round;stroke-miterlimit:10;"
   x1="119.626"
   y1="336.38"
   x2="136.895"
   y2="336.38"
   id="line2329" />
			
				<line
   style="fill:none;stroke:#99BFE3;stroke-linejoin:round;stroke-miterlimit:10;"
   x1="634.507"
   y1="345"
   x2="651.776"
   y2="345"
   id="line2331" />
			
				<line
   style="fill:none;stroke:#99BFE3;stroke-linejoin:round;stroke-miterlimit:10;"
   x1="457.21"
   y1="133.687"
   x2="483.647"
   y2="133.687"
   id="line2333" />
			
				<line
   style="fill:none;stroke:#99BFE3;stroke-linejoin:round;stroke-miterlimit:10;"
   x1="143.837"
   y1="317.176"
   x2="152.471"
   y2="317.176"
   id="line2335" />
			
				<line
   style="fill:none;stroke:#99BFE3;stroke-linejoin:round;stroke-miterlimit:10;"
   x1="479.566"
   y1="124.554"
   x2="488.2"
   y2="124.554"
   id="line2337" />
			
				<line
   style="fill:none;stroke:#99BFE3;stroke-linejoin:round;stroke-miterlimit:10;"
   x1="217.348"
   y1="91.061"
   x2="225.982"
   y2="91.061"
   id="line2339" />
			
				<line
   style="fill:none;stroke:#99BFE3;stroke-linejoin:round;stroke-miterlimit:10;"
   x1="232.531"
   y1="99.692"
   x2="241.166"
   y2="99.692"
   id="line2341" />
			<g
   id="g2375">
				<path
   style="fill:#FFFFFF;stroke:#99BFE3;stroke-linejoin:round;stroke-miterlimit:10;"
   d="M167.432,451.388      c-11.914-23.109-29.761-31.37-37.516-42.892c-2.332-3.465-4.366-7.215-4.522-11.088c-0.156-3.873,1.964-7.887,6.093-9.32      c3.546-1.231,7.786-0.381,11.483,0.977c11.475,4.215,20.23,13.025,25.464,22.646c5.234,9.621,10.429,24.706,9.569,39.677"
   id="path2343" />
				<path
   style="fill:none;stroke:#99BFE3;stroke-linejoin:round;stroke-miterlimit:10;"
   d="M128.522,389.828      c0,0,36.905,18.909,45.192,61.56"
   id="path2345" />
				<path
   style="fill:#FFFFFF;stroke:#99BFE3;stroke-linejoin:round;stroke-miterlimit:10;"
   d="M176.779,451.388      c-0.049-22.291-5.191-39.089-11.61-58.458c-3.196-9.643-7.243-19.409-9.6-29.186c-1.713-7.105-3.112-16.111,0.996-21.863      c4.679-6.55,13.695-3.705,20.283,0.674c7.865,5.229,13.435,13.375,16.994,21.757c6.293,14.821,7.33,31.164,7.513,46.276      c0.167,13.874-2.589,29.193-5.84,40.799"
   id="path2347" />
				<path
   style="fill:none;stroke:#99BFE3;stroke-linejoin:round;stroke-miterlimit:10;"
   d="M163.735,337.931      c0,0,27.689,49.771,22.686,113.457"
   id="path2349" />
				<path
   style="fill:#FFFFFF;stroke:#99BFE3;stroke-linejoin:round;stroke-miterlimit:10;"
   d="M257.014,451.388      c-1.899-16.215-1.73-33.967,3.711-49.36c5.442-15.392,16.751-29.268,32.06-34.941c2.648-0.981,5.785-1.663,8.159-0.132      c2.18,1.406,2.954,4.202,3.288,6.775c1.657,12.766-3.301,25.473-9.495,36.757c-6.193,11.285-13.759,28.773-18.076,40.9"
   id="path2351" />
				<path
   style="fill:#FFFFFF;stroke:#99BFE3;stroke-linejoin:round;stroke-miterlimit:10;"
   d="M456.355,451.388      c-1.448-23.452,1.198-52.215,8.827-70.669c5.925-14.331,15.836-27.785,29.287-36.265c9.691-6.111,28.23-15.923,38.063-5.197      c14.444,15.76-17.169,40.967-25.569,51.854c-13.954,18.084-25.472,37.661-30.092,60.278"
   id="path2353" />
				<path
   style="fill:#FFFFFF;stroke:#99BFE3;stroke-linejoin:round;stroke-miterlimit:10;"
   d="M425.25,451.388      c-1.64-19.574-13.801-37.832-26.023-53.208c-12.222-15.377-25.358-31.141-29.593-50.321c-1.303-5.903-1.6-12.488,1.653-17.583      c4.971-7.787,16.164-8.897,25.03-6.299c12.266,3.594,22.503,12.515,29.57,23.166c7.067,10.651,11.225,22.971,14.234,35.394      c5.333,22.017,7.279,46.251,5.749,68.853"
   id="path2355" />
				<path
   style="fill:#FFFFFF;stroke:#99BFE3;stroke-linejoin:round;stroke-miterlimit:10;"
   d="M579.333,451.388      c0.97-28.484,6.297-51.868,27.269-72.84c6.579-6.579,18.845-15.116,29.905-10.178c5.478,2.446,5.576,10.819,2.983,15.874      c-6.991,13.631-37.208,29.426-48.335,67.144"
   id="path2357" />
				<path
   style="fill:#FFFFFF;stroke:#99BFE3;stroke-linejoin:round;stroke-miterlimit:10;"
   d="M560.563,451.388      c-9.527-68.119,7.889-95.579,17.891-105.602c6.625-6.638,19.183-16.262,30.395-9.203c13.368,8.417,5.896,27.474-2.248,41.965      c-9.35,16.636-21.937,42.114-23.984,72.84"
   id="path2359" />
				<path
   style="fill:#FFFFFF;stroke:#99BFE3;stroke-linejoin:round;stroke-miterlimit:10;"
   d="M598.238,451.388      c2.111-11.234,12.752-35.432,28.661-42.988c4.086-1.941,9.264-2.401,13.659-1.15c4.011,1.142,6.901,4.827,7.455,8.901      c0.664,4.885-1.97,9.026-5.68,11.971c-8.961,7.114-19.645,14.042-27.672,23.266"
   id="path2361" />
				<path
   style="fill:none;stroke:#99BFE3;stroke-linejoin:round;stroke-miterlimit:10;"
   d="M300.945,366.955      c0,0-28.435,30.045-33.338,83.933"
   id="path2363" />
				<path
   style="fill:none;stroke:#99BFE3;stroke-linejoin:round;stroke-miterlimit:10;"
   d="M376.762,325.227      c0,0,47.76,36.44,61.478,126.161"
   id="path2365" />
				<path
   style="fill:none;stroke:#99BFE3;stroke-linejoin:round;stroke-miterlimit:10;"
   d="M463.15,451.888      c0,0,9.126-74.688,69.382-112.631"
   id="path2367" />
				<path
   style="fill:none;stroke:#99BFE3;stroke-linejoin:round;stroke-miterlimit:10;"
   d="M608.847,336.581      c0,0-39.266,33.695-38.724,115.307"
   id="path2369" />
				<path
   style="fill:none;stroke:#99BFE3;stroke-linejoin:round;stroke-miterlimit:10;"
   d="M585.824,451.388      c4.991-28.726,20.157-56.334,50.683-83.018"
   id="path2371" />
				<path
   style="fill:none;stroke:#99BFE3;stroke-linejoin:round;stroke-miterlimit:10;"
   d="M605.612,451.388      c0,0,11.393-27.681,38.53-42.45"
   id="path2373" />
			</g>
			
				<rect
   x="83.247"
   y="450.888"
   style="fill:none;stroke:#99BFE3;stroke-linejoin:round;stroke-miterlimit:10;"
   width="583.505"
   height="1"
   id="rect2377" />
		</g>
		<g
   id="g2885">
			<g
   id="g2517">
				<g
   id="g2393">
					<polygon
   style="fill:#2D2D2D;"
   points="566.549,451.888 537.362,451.888 537.549,448.313 566.737,448.313      "
   id="polygon2381" />
					<polyline
   style="fill:#FFB9A9;"
   points="563.52,412.703 564.224,437.218 562.838,448.313 542.781,436.206 541.517,409.882             "
   id="polyline2383" />
					<path
   style="fill:#E56767;"
   d="M542.781,436.206c0,0-2.924,7.036-4.2,8.999c-1.276,1.963-1.071,3.842-1.071,3.842       s27.626,0,29.176,0c0.51-2.975-2.41-12.841-2.41-12.841S548.244,437.243,542.781,436.206z"
   id="path2385" />
					
						<line
   style="fill:none;stroke:#2D2D2D;stroke-linejoin:round;stroke-miterlimit:10;"
   x1="549.951"
   y1="438.589"
   x2="556.9"
   y2="438.589"
   id="line2387" />
					
						<line
   style="fill:none;stroke:#2D2D2D;stroke-linejoin:round;stroke-miterlimit:10;"
   x1="549.66"
   y1="440.948"
   x2="557.094"
   y2="440.948"
   id="line2389" />
					
						<line
   style="fill:none;stroke:#2D2D2D;stroke-linejoin:round;stroke-miterlimit:10;"
   x1="549.395"
   y1="443.306"
   x2="557.351"
   y2="443.306"
   id="line2391" />
				</g>
				<g
   id="g2397">
					<path
   style="fill:#031628;"
   d="M505.614,149.639c0.684,3.954,1.288,7.845,4.992,10.312c1.963,1.308,4.321,1.925,6.67,2.135       c1.941,0.173,3.922,0.079,5.793-0.463c1.845-0.534,3.536-1.486,5.209-2.43c1.195-0.674,2.485-1.46,2.919-2.762       c0.212-0.634,0.191-1.322,0.341-1.973c0.249-1.081,0.947-1.993,1.614-2.879c1.327-1.763,2.648-3.711,2.721-5.916       c0.03-0.902-0.155-1.802-0.443-2.658c-0.88-2.615-2.706-4.832-4.839-6.581c-2.133-1.75-4.577-3.075-7.02-4.356       c-1.126-0.59-2.277-1.182-3.529-1.404c-1.221-0.217-2.475-0.071-3.698,0.128c-3.175,0.516-6.372,1.425-8.949,3.35       c-1.408,1.051-2.625,2.432-3.188,4.096c-0.773,2.283-0.241,4.79,0.466,7.094C505.102,146.731,505.363,148.189,505.614,149.639z       "
   id="path2395" />
				</g>
				<g
   id="g2411">
					<path
   style="fill:#2D2D2D;"
   d="M517.299,451.148v-2.101h-38.856c-1.328,0-2.557-0.698-3.239-1.837l-0.234-0.042v3.378       c0,0.126,0.048,0.247,0.134,0.338l0.081,0.086c0.549,0.585,1.316,0.917,2.118,0.917h39.256       C516.968,451.888,517.299,451.557,517.299,451.148z"
   id="path2399" />
					<path
   style="fill:#FFB9A9;"
   d="M518.552,408.559l-2.496,28.56l-0.649,11.194h-37.813c-0.875,0-1.585-0.709-1.585-1.585l0,0       c0-0.655,0.404-1.243,1.015-1.479l17.353-8.131l-1.591-31.381"
   id="path2401" />
					<path
   style="fill:#E56767;"
   d="M494.419,435.236l-18.327,9.97c-0.676,0.295-1.122,1.033-1.122,1.855l0,0       c0,1.098,1.13,1.987,2.097,1.987h40.232l-1.206-12.189C516.093,436.858,501.796,439.386,494.419,435.236z"
   id="path2403" />
					
						<line
   style="fill:none;stroke:#2D2D2D;stroke-linejoin:round;stroke-miterlimit:10;"
   x1="483.883"
   y1="440.967"
   x2="486.003"
   y2="444.545"
   id="line2405" />
					
						<line
   style="fill:none;stroke:#2D2D2D;stroke-linejoin:round;stroke-miterlimit:10;"
   x1="486.003"
   y1="439.814"
   x2="488.272"
   y2="443.579"
   id="line2407" />
					
						<line
   style="fill:none;stroke:#2D2D2D;stroke-linejoin:round;stroke-miterlimit:10;"
   x1="488.272"
   y1="438.589"
   x2="490.541"
   y2="442.275"
   id="line2409" />
				</g>
				<path
   style="fill:#FFB9A9;"
   d="M465.309,188.922l16.396,16.209l45.308,33.235l-8.191,10.369c0,0-28.819-11.701-50.362-25.126      c-7.805-4.864-23.391-21.653-23.391-21.653"
   id="path2413" />
				<g
   id="g2417">
					<path
   style="fill:#FFB9A9;"
   d="M522.457,236.307c2.654,1.281,7.675,3.372,10.329,4.654c1.565,0.756,4.242,2.25,4.111,3.012       c-0.337,1.96-4.421-1.293-4.592-0.299c-0.104,0.603,3.319,2.125,5.072,2.914c1.564,0.704,3.593,1.87,3.465,2.945       c-0.164,1.381-8.913-2.635-8.913-2.635s9.044,4.608,8.846,5.759c-0.285,1.658-9.393-2.959-9.393-2.959s7.65,4.066,7.439,5.293       c-0.211,1.227-5.776-2.278-8.221-3.167c1.609,1.047,6.266,4.202,5.642,4.848c-0.556,0.576-3.89-1.159-4.738-1.502       c-8.088-3.271-13.49-6.76-13.49-6.76"
   id="path2415" />
				</g>
				<path
   style="fill:none;stroke:#EA8F86;stroke-width:0.75;stroke-linejoin:round;stroke-miterlimit:10;"
   d="M522.274,240.743      c0,0,3.371,3.175,6.86,2.559"
   id="path2419" />
				<g
   id="g2433">
					<path
   style="fill:#FFB9A9;"
   d="M478.064,192.949c0,0-16.236,20.115-21.664,25.863c-4.388,4.646-29.624,9.961-29.624,9.961       l-0.86,12.782c6.745-0.035,37.02-0.406,50.13-13.516c10.797-10.797,24.018-27.421,24.018-27.421"
   id="path2421" />
					<g
   id="g2425">
						<path
   style="fill:#FFB9A9;"
   d="M433.385,228.039c-3.257,0.107-7.734,0.483-10.991,0.534c-1.584,0.025-4.848,0.038-5.183,0.697        c-0.64,1.261,4.075,1.065,3.752,1.973c-0.196,0.551-3.71,0.395-5.453,0.202c-1.555-0.172-3.495-0.386-3.962,0.534        c-0.405,0.799,8.712,1.964,8.712,1.964s-9.723-0.389-10.096,0.662c-0.538,1.515,10.003,1.891,10.003,1.891        s-9.14-0.128-9.538,0.993c-0.398,1.121,6.782,1.23,9.609,1.516c-1.748,0.091-8.137-0.016-8.427,0.802        c-0.29,0.817,3.01,1.474,3.843,1.539c5.033,0.393,15.109,0.133,15.109,0.133"
   id="path2423" />
					</g>
					<path
   style="fill:none;stroke:#EA8F86;stroke-width:0.75;stroke-linejoin:round;stroke-miterlimit:10;"
   d="M422.241,238.523       c0,0,3.582-4.57,8.172-4.347"
   id="path2427" />
					
						<line
   style="fill:none;stroke:#EA8F86;stroke-width:0.75;stroke-linejoin:round;stroke-miterlimit:10;"
   x1="459.01"
   y1="215.911"
   x2="473.398"
   y2="198.69"
   id="line2429" />
					
						<line
   style="fill:none;stroke:#EA8F86;stroke-width:0.75;stroke-linejoin:round;stroke-miterlimit:10;"
   x1="476.249"
   y1="228.039"
   x2="491.045"
   y2="212.327"
   id="line2431" />
				</g>
				<g
   id="g2451">
					<path
   style="fill:#1E2E59;"
   d="M489.555,257.281c-1.208,1.644,0.119,174.221,0.119,174.221h30l9.792-129.947       c0,0,3.155-28.721-4.566-53.786"
   id="path2435" />
					<path
   style="fill:#1E2E59;"
   d="M559.241,257.281c2.59,3.525,10.221,174.221,10.221,174.221h-30l-16.429-129.947       c0,0-3.155-28.721,4.566-53.786"
   id="path2437" />
					<path
   style="fill:none;stroke:#2F5FA5;stroke-width:0.75;stroke-linejoin:round;stroke-miterlimit:10;"
   d="M527.008,333.004       c0,0-4.734-50.79-4.734-65.209"
   id="path2439" />
					<path
   style="fill:none;stroke:#2F5FA5;stroke-width:0.75;stroke-linejoin:round;stroke-miterlimit:10;"
   d="M516.54,267.795       c0,0,0.797,19.603,1.834,24.308c0.456,2.069,4.999,1.645,4.999,1.645"
   id="path2441" />
					<path
   style="fill:none;stroke:#2F5FA5;stroke-width:0.75;stroke-linejoin:round;stroke-miterlimit:10;"
   d="M566.245,431.503       c0,0-7.904-150.348-12.748-165.355"
   id="path2443" />
					<path
   style="fill:none;stroke:#2F5FA5;stroke-width:0.75;stroke-linejoin:round;stroke-miterlimit:10;"
   d="M540.939,270.344       c0,0,2.869,7.624,5.073,9.827c2.204,2.204,9.575,1.521,9.575,1.521"
   id="path2445" />
					
						<line
   style="fill:none;stroke:#2F5FA5;stroke-width:0.75;stroke-linejoin:round;stroke-miterlimit:10;"
   x1="517.299"
   y1="431.503"
   x2="525.842"
   y2="320.005"
   id="line2447" />
					<path
   style="fill:none;stroke:#2F5FA5;stroke-width:0.75;stroke-linejoin:round;stroke-miterlimit:10;"
   d="M489.12,279.461       c0,0,6.166,0.554,7.798-0.81c2.233-1.865,6.196-6.754,6.196-6.754"
   id="path2449" />
				</g>
				<g
   id="g2455">
					<path
   style="fill:#E56767;"
   d="M518.374,169.283c0,0-9.423-5.045-24.299,3.556c-7.462,4.314-17.241,15.299-24.299,27.557       c2.869,4.807,20.861,18.65,27.651,17.967c5.385-6.877,11.197-27.707,11.197-27.707"
   id="path2453" />
				</g>
				<g
   id="g2461">
					<path
   style="fill:#E56767;"
   d="M490.637,187.255l-3.639,84.642l77.685-1.553c-0.645-18.578-7.01-64.757-11.185-85.576       c-14.966-18.923-33.367-19.077-33.367-19.077l-14.336,8.833L490.637,187.255z"
   id="path2457" />
					<path
   style="fill:none;stroke:#A84545;stroke-width:0.75;stroke-linejoin:round;stroke-miterlimit:10;"
   d="M489.657,214.517       c0,0,0.98-17.976,0.98-27.262"
   id="path2459" />
				</g>
				<g
   id="g2471">
					<path
   style="fill:#FFB9A9;"
   d="M558.496,174.294c0,0,18.91,12.62,30.891,8.235c8.81-3.224,26.732-30.167,26.732-30.167       l13.93,5.928c-3.643,7.089-21.178,47.45-43.034,48.975c-18.253,1.273-39.436-9.4-39.436-9.4"
   id="path2463" />
					<g
   id="g2467">
						<path
   style="fill:#FFB9A9;"
   d="M611.813,158.935c1.854-3.374,4.644-7.892,6.439-11.297c0.873-1.656,2.632-5.089,3.506-5.089        c1.671,0-1.057,4.863,0.073,5.009c0.685,0.089,2.4-3.698,3.129-5.638c0.65-1.73,1.462-3.89,2.681-3.89        c1.059,0-2.588,10.231-2.588,10.231s4.789-10.454,6.096-10.285c1.884,0.243-3.356,11.552-3.356,11.552s4.752-9.7,6.146-9.52        c1.394,0.18-2.33,7.805-3.539,10.937c1.031-1.794,4.334-8.583,5.35-8.452c1.016,0.131-0.056,3.96-0.433,4.873        c-2.276,5.514-7.938,15.993-7.938,15.993"
   id="path2465" />
					</g>
					<path
   style="fill:none;stroke:#EA8F86;stroke-width:0.75;stroke-linejoin:round;stroke-miterlimit:10;"
   d="M628.818,152.796       c0,0-6.731,1.331-8.95,6.287"
   id="path2469" />
				</g>
				<path
   style="fill:#E56767;"
   d="M524.447,167.38c0,0,16.941-2.485,34.127,5.874c12.952,6.299,15.087,7.768,15.087,7.768      l-10.006,24.566l-28.026-12.26"
   id="path2473" />
				<g
   id="g2513">
					<g
   id="g2477">
						<path
   style="fill:#FFB9A9;"
   d="M509.543,146.847c-0.687-0.687-1.882-0.618-2.591,0.014c-0.794,0.708-0.938,2.154-0.742,3.144        c0.316,1.602,1.773,3.325,3.573,2.789c0.665-0.198,1.221-0.732,1.446-1.389"
   id="path2475" />
					</g>
					<g
   id="g2481">
						<path
   style="fill:#FFB9A9;"
   d="M529.727,147.335c0.068-0.071,0.136-0.141,0.212-0.204c0.625-0.515,1.642-0.285,2.165,0.333        c0.524,0.618,0.633,1.495,0.531,2.299c-0.112,0.884-0.47,1.758-1.119,2.369c-0.649,0.61-1.611,0.917-2.465,0.663        c-0.665-0.198-1.221-0.732-1.446-1.389"
   id="path2479" />
					</g>
					<path
   style="fill:#FFB9A9;"
   d="M512.44,157.518l9.172-12.465l4.839,11.31l0.812,11.854c-3.164,6.784-13.081,5.246-14.704,1.265       L512.44,157.518"
   id="path2483" />
					<path
   style="fill:#FFB9A9;"
   d="M509.677,138.887c-1.787,4.6-1.124,21.006,2.492,23.129c3.616,2.123,11.564,1.609,14.13-1.018       c2.226-2.279,5.728-16.054,2.592-19.711C525.755,137.629,512.183,132.436,509.677,138.887z"
   id="path2485" />
					<g
   id="g2489">
						<path
   style="fill:#031628;"
   d="M528.16,130.457c-1.009-2.179-3.18-3.739-5.545-4.162c-2.387-0.427-4.917,0.258-6.874,1.689        c-1.16,0.848-2.161,1.96-3.496,2.492c-1.535,0.611-3.255,0.36-4.907,0.339c-1.652-0.02-3.509,0.319-4.45,1.676        c-0.641,0.924-0.709,2.123-0.648,3.246c0.09,1.667,0.43,3.359,1.302,4.783c0.872,1.424,2.338,2.549,3.999,2.713        c2.144,0.211,4.084-1.126,6.038-2.032c1.905-0.884,3.947-1.432,5.848-2.325c1.826-0.858,3.559-0.904,5.348,0.177        c1.616,0.976,2.815,2.495,4.124,3.856c0.852,0.885,1.817,1.745,3.011,2.035c1.194,0.29,2.654-0.184,3.104-1.327        c0.302-0.77,0.096-1.636-0.113-2.436c-0.297-1.137-0.594-2.274-0.89-3.411c-0.285-1.091-0.578-2.202-1.178-3.156        c-0.484-0.771-1.134-1.332-1.885-1.828c-0.655-0.432-1.589-0.579-2.133-1.139c-0.302-0.311-0.45-0.734-0.628-1.129        C528.179,130.498,528.17,130.477,528.16,130.457z"
   id="path2487" />
					</g>
					<path
   style="fill:none;stroke:#EA8F86;stroke-width:0.75;stroke-linejoin:round;stroke-miterlimit:10;"
   d="M514.49,163.174       c0,0,7.378,1.063,10.724-1.52"
   id="path2491" />
					<path
   style="fill:none;stroke:#EA8F86;stroke-width:0.75;stroke-linejoin:round;stroke-miterlimit:10;"
   d="M517.899,147.907       c0,0-1.977,4.798-1.203,5.977c0.774,1.18,2.838,0.48,2.838,0.48"
   id="path2493" />
					<g
   id="g2497">
						<path
   style="fill:#3F111D;"
   d="M522.24,147.859c-0.131,0.293-0.14,0.702-0.178,0.947c-0.068,0.434,0.383,0.711,0.792,0.617        c0.761-0.175,0.778-1.936-0.147-1.909C522.467,147.521,522.327,147.664,522.24,147.859z"
   id="path2495" />
					</g>
					<g
   id="g2501">
						<path
   style="fill:#3F111D;"
   d="M511.842,147.423c-0.131,0.293-0.14,0.702-0.178,0.947c-0.068,0.434,0.383,0.711,0.792,0.617        c0.761-0.175,0.777-1.936-0.147-1.909C512.07,147.085,511.929,147.228,511.842,147.423z"
   id="path2499" />
					</g>
					<path
   style="fill:#FFFFFF;"
   d="M514.725,156.492l6.52-0.165c0,0,0.628,3.813-3.282,3.72       C514.423,159.962,514.725,156.492,514.725,156.492z"
   id="path2503" />
					<g
   id="g2507">
						<path
   style="fill:#3F111D;"
   d="M521.425,145.491c1.214,0.12,2.497,0.515,3.529,1.07c0.128-0.055,0.493-0.606,0.341-0.962        c-0.12-0.281-1.969-1.109-3.696-1.22C521.598,144.379,521.199,145.315,521.425,145.491z"
   id="path2505" />
					</g>
					<g
   id="g2511">
						<path
   style="fill:#3F111D;"
   d="M513.589,145.233c-0.877-0.066-1.791,0.121-2.515,0.501c-0.095-0.072-0.268-0.569-0.174-0.889        c0.074-0.252,1.378-0.772,2.629-0.62C513.53,144.225,513.745,145.098,513.589,145.233z"
   id="path2509" />
					</g>
				</g>
				
					<line
   style="fill:none;stroke:#A84545;stroke-width:0.75;stroke-linejoin:round;stroke-miterlimit:10;"
   x1="556.713"
   y1="203.038"
   x2="540.939"
   y2="195.651"
   id="line2515" />
			</g>
			<path
   style="fill:#C96947;"
   d="M365.08,186.477c0,0,11.231,11.142,15.554,10.681c7.178-0.767,47.522-25.25,47.522-25.25     l4.532,16.548c0,0-30.228,32.732-48.218,34.777c-15.546,1.767-36.505-16.863-36.505-16.863"
   id="path2519" />
			<g
   id="g2646">
				<g
   id="g2523">
					<path
   style="fill:#611223;"
   d="M435.913,137.554c1.712,0.738,2.836,2.473,3.284,4.283c0.448,1.81,0.317,3.708,0.138,5.564       c-0.052,0.535-0.107,1.079-0.011,1.608c0.447,2.465,3.752,3.398,4.639,5.741c0.256,0.675,0.284,1.411,0.31,2.133       c0.048,1.338,0.143,4.015,0.143,4.015s-11.795,0.948-18.766,0.759"
   id="path2521" />
				</g>
				<g
   id="g2537">
					<polygon
   style="fill:#2D2D2D;"
   points="384.798,451.888 413.985,451.888 413.798,448.313 384.61,448.313      "
   id="polygon2525" />
					<polyline
   style="fill:#FFB9A9;"
   points="387.827,412.703 387.124,437.218 388.509,448.313 407.566,436.206 409.83,409.882             "
   id="polyline2527" />
					<path
   style="fill:#4063D9;"
   d="M407.566,436.206c0,0,3.924,7.036,5.2,8.999c1.276,1.963,1.071,3.842,1.071,3.842       s-27.626,0-29.176,0c-0.51-2.975,2.41-12.841,2.41-12.841S402.103,437.243,407.566,436.206z"
   id="path2529" />
					
						<line
   style="fill:none;stroke:#2D2D2D;stroke-linejoin:round;stroke-miterlimit:10;"
   x1="401.396"
   y1="438.589"
   x2="394.447"
   y2="438.589"
   id="line2531" />
					
						<line
   style="fill:none;stroke:#2D2D2D;stroke-linejoin:round;stroke-miterlimit:10;"
   x1="401.687"
   y1="440.948"
   x2="394.253"
   y2="440.948"
   id="line2533" />
					
						<line
   style="fill:none;stroke:#2D2D2D;stroke-linejoin:round;stroke-miterlimit:10;"
   x1="401.952"
   y1="443.306"
   x2="393.996"
   y2="443.306"
   id="line2535" />
				</g>
				<g
   id="g2551">
					<path
   style="fill:#2D2D2D;"
   d="M428.716,451.148l-0.11-2.101h38.856c1.327,0,2.521-0.698,3.142-1.837l0.232-0.042l0.177,3.378       c0.007,0.126-0.035,0.247-0.116,0.338l-0.076,0.086c-0.519,0.585-1.268,0.917-2.07,0.917h-39.256       C429.086,451.888,428.737,451.557,428.716,451.148z"
   id="path2539" />
					<path
   style="fill:#FFB9A9;"
   d="M430.005,412.703l0.082,24.327l0.373,11.283h37.813c0.875,0,1.547-0.709,1.501-1.585l0,0       c-0.034-0.655-0.469-1.243-1.093-1.479l-17.779-8.131l4.027-27.237"
   id="path2541" />
					<path
   style="fill:#4063D9;"
   d="M451.091,435.548l18.52,9.657c0.691,0.295,1.176,1.033,1.219,1.855l0,0       c0.058,1.098-1.026,1.987-1.993,1.987h-40.232l1.224-12.278C429.83,436.769,443.932,439.698,451.091,435.548z"
   id="path2543" />
					
						<line
   style="fill:none;stroke:#2D2D2D;stroke-linejoin:round;stroke-miterlimit:10;"
   x1="461.446"
   y1="440.948"
   x2="459.049"
   y2="445.477"
   id="line2545" />
					
						<line
   style="fill:none;stroke:#2D2D2D;stroke-linejoin:round;stroke-miterlimit:10;"
   x1="458.41"
   y1="439.37"
   x2="456.014"
   y2="443.899"
   id="line2547" />
					
						<line
   style="fill:none;stroke:#2D2D2D;stroke-linejoin:round;stroke-miterlimit:10;"
   x1="455.374"
   y1="437.793"
   x2="452.978"
   y2="442.322"
   id="line2549" />
				</g>
				<g
   id="g2555">
					<path
   style="fill:#4063D9;"
   d="M426.652,166.529c0,0,17.882,2.317,25.757,8.569c7.924,6.29,19.714,18.981,19.714,18.981       L455.9,214.517l-14.651-15.829"
   id="path2553" />
				</g>
				<g
   id="g2575">
					<path
   style="fill:#0F43AA;"
   d="M442.857,229.753l7.458,6.853c1.483,4.841,12.364,16.481,14.767,53.31       c2.659,40.735-2.499,126.073-2.499,126.073h-35.007l-1.848-144.905l-1.378-52.722"
   id="path2557" />
					<path
   style="fill:#0F43AA;"
   d="M401.064,233.59c-2.505,6.731-11.703,20.927-15.668,40.399c-6.141,30.153-0.82,142-0.82,142       h29.702l17.351-145.518c0,0,1.57-12.898,0.819-34.396"
   id="path2559" />
					<g
   id="g2573">
						<path
   style="fill:none;stroke:#4063D9;stroke-width:0.75;stroke-linejoin:round;stroke-miterlimit:10;"
   d="M427.07,317.176        c0.712-14.436,4.739-61.212,5.379-81.1"
   id="path2561" />
						<path
   style="fill:none;stroke:#4063D9;stroke-width:0.75;stroke-linejoin:round;stroke-miterlimit:10;"
   d="M410.193,233.59        c0,0-12.954,15.71-16.655,38.498c-3.115,19.173-2.341,143.902-2.341,143.902"
   id="path2563" />
						<path
   style="fill:none;stroke:#4063D9;stroke-width:0.75;stroke-linejoin:round;stroke-miterlimit:10;"
   d="M421.391,236.075        c0,0-3.085,11.508-20.607,13.071"
   id="path2565" />
						<path
   style="fill:none;stroke:#4063D9;stroke-width:0.75;stroke-linejoin:round;stroke-miterlimit:10;"
   d="M455.996,248.033        c0,0-12.569-6.776-15.066-11.958"
   id="path2567" />
						<path
   style="fill:none;stroke:#4063D9;stroke-width:0.75;stroke-linejoin:round;stroke-miterlimit:10;"
   d="M437.517,237.854        c0,0-0.586,18.366-2.11,19.945c-1.524,1.579-4.757,1.963-4.757,1.963"
   id="path2569" />
						<path
   style="fill:none;stroke:#4063D9;stroke-width:0.75;stroke-linejoin:round;stroke-miterlimit:10;"
   d="M433.833,415.83        c0,0-3.062-108.693-4.66-129.577"
   id="path2571" />
					</g>
				</g>
				<g
   id="g2593">
					<g
   id="g2583">
						<g
   id="g2581">
							<path
   style="fill:#4063D9;"
   d="M393.703,183.145c3.4-5.336,21.674-16.067,21.674-16.067         c6.17-0.774,13.259-0.346,13.259-0.346s10.33,8.369,17.427,18.036c5.827,5.631,8.181,9.936,8.269,15.757         c0.06,3.978-1.785,7.371-2.733,13.417c-1.027,6.549-1.284,22.664-1.284,22.664c-11.15,4.105-33.785,3.662-50.313-0.531         C397.891,220.841,390.303,188.48,393.703,183.145z"
   id="path2577" />
							<path
   style="fill:none;stroke:#262A82;stroke-width:0.75;stroke-linejoin:round;stroke-miterlimit:10;"
   d="M446.064,184.768         c5.827,5.631,8.181,9.936,8.269,15.757c0.06,3.978-1.227,6.077-2.05,9.964"
   id="path2579" />
						</g>
					</g>
					<path
   style="fill:none;stroke:#262A82;stroke-width:0.75;stroke-linejoin:round;stroke-miterlimit:10;"
   d="M427.807,199.611       l-2.561-28.308L427.807,199.611z"
   id="path2585" />
					<path
   style="fill:#262A82;"
   d="M423.008,179.638c0.01,0.295,0.258,0.534,0.552,0.534s0.525-0.239,0.515-0.534       c-0.01-0.295-0.258-0.534-0.552-0.534C423.228,179.104,422.997,179.343,423.008,179.638z"
   id="path2587" />
					<path
   style="fill:#262A82;"
   d="M423.865,188.897c0.01,0.295,0.258,0.534,0.552,0.534c0.295,0,0.525-0.239,0.515-0.534       c-0.01-0.295-0.258-0.534-0.552-0.534C424.085,188.363,423.854,188.602,423.865,188.897z"
   id="path2589" />
					<path
   style="fill:#262A82;"
   d="M424.722,198.156c0.01,0.295,0.258,0.534,0.552,0.534c0.295,0,0.525-0.239,0.515-0.534       c-0.01-0.295-0.258-0.533-0.552-0.533C424.942,197.623,424.711,197.862,424.722,198.156z"
   id="path2591" />
				</g>
				<g
   id="g2607">
					<path
   style="fill:#FFB9A9;"
   d="M383.875,187.351c0,0-21.136,18.542-25.427,21.769c-4.177,3.141-40.514,21.439-40.514,21.439       l3.177,10.521c0,0,40.918-9.502,53.346-16.821c10.073-5.932,29.352-22.909,29.352-22.909"
   id="path2595" />
					<path
   style="fill:#4063D9;"
   d="M414.797,167.305c0,0-9.442,1.265-19.793,7.434c-7.499,4.469-20.546,19.71-20.546,19.71       l19.243,19.217l19.52-17.43"
   id="path2597" />
					
						<line
   style="fill:none;stroke:#262A82;stroke-width:0.75;stroke-linejoin:round;stroke-miterlimit:10;"
   x1="396.436"
   y1="211.224"
   x2="408.145"
   y2="200.768"
   id="line2599" />
					<g
   id="g2603">
						<path
   style="fill:#FFB9A9;"
   d="M323.454,227.733c-2.758,0.828-7.941,2.064-10.699,2.893c-1.626,0.488-4.427,1.524-4.371,2.302        c0.143,2,4.511-0.545,4.584,0.469c0.044,0.615-3.5,1.554-5.316,2.044c-1.62,0.437-3.746,1.256-3.725,2.343        c0.028,1.397,9.098-1.127,9.098-1.127s-9.421,3.062-9.337,4.236c0.121,1.692,9.605-1.368,9.605-1.368        s-7.985,2.757-7.895,4.009c0.09,1.252,5.901-0.921,8.413-1.395c-1.698,0.77-6.3,2.291-6.235,3.204        c0.065,0.913,3.646,0.323,4.486,0.009c8.314-3.106,14.513-6.204,14.513-6.204"
   id="path2601" />
					</g>
					<path
   style="fill:none;stroke:#EA8F86;stroke-width:0.75;stroke-linejoin:round;stroke-miterlimit:10;"
   d="M323.202,232.164       c0,0-3.654,2.586-7.054,1.394"
   id="path2605" />
				</g>
				<g
   id="g2636">
					<g
   id="g2628">
						<path
   style="fill:#FFB9A9;"
   d="M427.703,157.5l1.017,9.873c0,0,1.941,3.888-5.464,4.104c-5.721,0.167-7.879-4.399-7.879-4.399        l2.699-15.267"
   id="path2609" />
						<path
   id="XMLID_39_"
   style="fill:#FFB9A9;"
   d="M435.756,135.631c2.01,6.341,4.458,19.398-2.774,23.226        c-1.664,0.881-4.2,0.645-6.787-0.498c-5.607-2.476-9.208-6.998-10.203-10.952C414.741,142.44,427.672,124.749,435.756,135.631        z" />
						<g
   id="g2614">
							<path
   style="fill:#611223;"
   d="M407.116,137.892c-0.954,0.697-2.161,1.149-2.957,2.043c-1.647,1.849-1.977,4.812-0.823,6.996         c0.42,0.795,1.037,1.565,1,2.464c-0.048,1.162-1.073,2.031-2.005,2.727c-4.136,3.094-2.39,9.3-2.39,9.3         s11.807,0.537,18.826,0.042c0.074-3.964-0.904-8.4,0.235-12.197s3.29-7.408,6.571-9.635c1.576-1.07,3.558-2.033,3.962-3.894         c3.013,1.324,5.801,3.157,8.211,5.399c1.319-2.452,1.384-5.588-0.015-7.994c-0.764-1.313-2.995-3.358-5.111-3.702         c-4.299-4.299-13.535-3.955-18.895-0.39C409.644,131.765,409.73,135.983,407.116,137.892z"
   id="path2612" />
						</g>
						<path
   id="XMLID_38_"
   style="fill:none;stroke:#EA8F86;stroke-width:0.75;stroke-linejoin:round;stroke-miterlimit:10;"
   d="        M431.821,145.453c0,0,2.612,4.141,2.102,5.046c-0.509,0.905-2.671,0.442-2.671,0.442" />
						<g
   id="XMLID_36_">
							<path
   id="XMLID_37_"
   style="fill:#031628;"
   d="M426.21,145.478c-0.036,0.057-0.069,0.118-0.098,0.177         c-0.208,0.439-0.148,0.859-0.143,1.335c0.009,0.756,1.273,0.693,1.186-0.084c-0.053-0.477-0.129-0.989-0.33-1.433         C426.628,145.034,426.38,145.214,426.21,145.478z" />
						</g>
						<g
   id="XMLID_34_">
							<path
   id="XMLID_35_"
   style="fill:#031628;"
   d="M434.842,144.472c-0.024,0.063-0.045,0.13-0.061,0.193         c-0.118,0.473,0.022,0.878,0.119,1.346c0.155,0.745,1.374,0.438,1.139-0.312c-0.144-0.461-0.317-0.952-0.598-1.352         C435.163,143.953,434.957,144.177,434.842,144.472z" />
						</g>
						<path
   id="XMLID_33_"
   style="fill:#031628;"
   d="M422.33,144.923c0,0-0.039-0.358,0.144-0.894        c0.177-0.514,0.625-1.125,1.248-1.525c0.624-0.394,1.408-0.546,1.982-0.419c0.288,0.05,0.506,0.187,0.644,0.27        c0.135,0.105,0.195,0.174,0.195,0.174s-0.1,0.013-0.244,0.018c-0.147,0.006-0.346,0.065-0.562,0.129        c-0.435,0.136-0.952,0.39-1.444,0.703c-0.492,0.31-0.962,0.675-1.326,0.988c-0.166,0.156-0.351,0.277-0.45,0.396        C422.406,144.869,422.33,144.923,422.33,144.923z" />
						<path
   id="XMLID_32_"
   style="fill:#031628;"
   d="M432.937,142.344c0,0,0.021-0.072,0.073-0.176        c0.048-0.088,0.17-0.27,0.344-0.385c0.346-0.27,0.967-0.377,1.524-0.23c0.56,0.146,1.033,0.522,1.258,0.888        c0.229,0.371,0.235,0.667,0.235,0.667s-0.076-0.023-0.182-0.068c-0.099-0.053-0.264-0.094-0.425-0.154        c-0.331-0.116-0.726-0.243-1.113-0.34c-0.384-0.104-0.764-0.184-1.092-0.206C433.245,142.295,432.935,142.358,432.937,142.344        z" />
						<path
   style="fill:none;stroke:#EA8F86;stroke-width:0.75;stroke-linejoin:round;stroke-miterlimit:10;"
   d="M420.996,155.216        c0,0,1.79,2.806,6.901,4.176"
   id="path2623" />
						<g
   id="XMLID_30_">
							<path
   style="fill:#FFB9A9;"
   d="M420.61,148.381c-0.59-2.45-3.084-2.069-3.747-1.578c-0.478,0.354-0.663,0.984-0.715,1.585         c-0.131,1.505,0.431,3.081,1.496,4.197c0.381,0.399,0.834,0.748,1.358,0.906c1.472,0.445,2.409-0.657,2.404-1.924"
   id="path2625" />
						</g>
					</g>
					<path
   style="fill:#FFFFFF;"
   d="M434.17,152.782h-7.1c0,0,0.698,3.721,4.127,3.721       C434.244,156.503,434.17,152.782,434.17,152.782z"
   id="path2630" />
					<polygon
   style="fill:#FFFFFF;"
   points="415.797,164.706 425.247,171.302 421.79,177.665 413.636,167.722      "
   id="polygon2632" />
					<polygon
   style="fill:#FFFFFF;"
   points="428.53,164.983 425.247,171.302 428.21,177.035 431.118,167.055      "
   id="polygon2634" />
				</g>
				<polygon
   style="fill:#BADFF4;"
   points="413.985,420.662 383.59,420.662 383.59,412.954 415.086,412.954     "
   id="polygon2638" />
				<polygon
   style="fill:#BADFF4;"
   points="462.784,420.662 426.914,420.662 426.914,412.954 463.108,412.954     "
   id="polygon2640" />
				<g
   id="g2644">
					<path
   style="fill:#C96947;"
   d="M437.33,168.617c1.323,2.452,7.427,6.338,8.336,6.112c0.909-0.226-1.149-2.808-1.327-3.406       c2.039,0.548,3.762,1.342,5.001,2.109c1.553,0.96,3.268,2.033,4.774,3.065c-0.738-1.855-2.872-4.704-3.77-5.394       C446.847,168.416,441.685,167.179,437.33,168.617"
   id="path2642" />
				</g>
			</g>
			<g
   id="g2766">
				<g
   id="g2650">
					<path
   style="fill:#E0D5D1;"
   d="M324.171,163.719c0,0,15.705-4.136,29.383,7.112c11.357,9.34,19.382,21.035,19.382,21.035       l-20.693,17.574l-21.894-18.212"
   id="path2648" />
				</g>
				<g
   id="g2664">
					<path
   style="fill:#2D2D2D;"
   d="M313.201,451.148v-2.101h-38.856c-1.328,0-2.557-0.698-3.239-1.837l-0.234-0.042v3.378       c0,0.126,0.048,0.247,0.134,0.338l0.081,0.086c0.549,0.585,1.316,0.917,2.118,0.917h39.256       C312.87,451.888,313.201,451.557,313.201,451.148z"
   id="path2652" />
					<path
   style="fill:#C96947;"
   d="M314.041,408.559l-2.951,28.471l0.219,11.283h-37.813c-0.875,0-1.585-0.709-1.585-1.585l0,0       c0-0.655,0.404-1.243,1.015-1.479l17.353-8.131l-1.311-31.381"
   id="path2654" />
					<path
   style="fill:#404058;"
   d="M290.008,435.548l-18.014,9.657c-0.676,0.295-1.122,1.033-1.122,1.855l0,0       c0,1.098,1.13,1.987,2.097,1.987h40.232l-1.867-12.278C311.333,436.769,297.385,439.698,290.008,435.548z"
   id="path2656" />
					
						<line
   style="fill:none;stroke:#2D2D2D;stroke-linejoin:round;stroke-miterlimit:10;"
   x1="279.635"
   y1="441.109"
   x2="281.904"
   y2="444.545"
   id="line2658" />
					
						<line
   style="fill:none;stroke:#2D2D2D;stroke-linejoin:round;stroke-miterlimit:10;"
   x1="281.904"
   y1="439.893"
   x2="284.173"
   y2="443.579"
   id="line2660" />
					
						<line
   style="fill:none;stroke:#2D2D2D;stroke-linejoin:round;stroke-miterlimit:10;"
   x1="284.173"
   y1="438.589"
   x2="286.442"
   y2="442.275"
   id="line2662" />
				</g>
				<g
   id="g2678">
					<path
   style="fill:#2D2D2D;"
   d="M343.499,451.148v-2.101h38.856c1.327,0,2.557-0.698,3.239-1.837l0.234-0.042v3.378       c0,0.126-0.048,0.247-0.134,0.338l-0.081,0.086c-0.549,0.585-1.316,0.917-2.118,0.917h-39.256       C343.831,451.888,343.499,451.557,343.499,451.148z"
   id="path2666" />
					<path
   style="fill:#C96947;"
   d="M339.591,408.559l3.974,28.471l1.826,11.283h37.813c0.875,0,1.585-0.709,1.585-1.585l0,0       c0-0.655-0.404-1.243-1.015-1.479l-19.398-8.131l0.288-31.381"
   id="path2668" />
					<path
   style="fill:#404058;"
   d="M364.647,435.548l20.059,9.657c0.676,0.295,1.122,1.033,1.122,1.855l0,0       c0,1.098-1.13,1.987-2.097,1.987h-40.232l-0.177-12.278C343.322,436.769,357.27,439.698,364.647,435.548z"
   id="path2670" />
					
						<line
   style="fill:none;stroke:#2D2D2D;stroke-linejoin:round;stroke-miterlimit:10;"
   x1="375.702"
   y1="440.871"
   x2="373.195"
   y2="444.545"
   id="line2672" />
					
						<line
   style="fill:none;stroke:#2D2D2D;stroke-linejoin:round;stroke-miterlimit:10;"
   x1="373.35"
   y1="439.738"
   x2="370.926"
   y2="443.579"
   id="line2674" />
					
						<line
   style="fill:none;stroke:#2D2D2D;stroke-linejoin:round;stroke-miterlimit:10;"
   x1="370.926"
   y1="438.589"
   x2="368.657"
   y2="442.275"
   id="line2676" />
				</g>
				<g
   id="g2700">
					<g
   id="g2686">
						<path
   style="fill:#404058;"
   d="M314.433,246.723c0,0-0.117,22.097,2.738,42.081c2.855,19.984,15.95,144.356,15.95,144.356        h35.721c0,0-2.937-94.661-6.953-142.893c-0.868-10.424-3.322-31.399-12.336-44.172"
   id="path2680" />
						<path
   style="fill:none;stroke:#161515;stroke-width:0.75;stroke-linejoin:round;stroke-miterlimit:10;"
   d="M363.73,433.16        c0,0-2.937-94.661-6.953-142.893c-0.868-10.424-3.322-31.399-12.336-44.172"
   id="path2682" />
						<path
   style="fill:#404058;"
   d="M284.315,251.979c-3.621,46.121,2.194,181.181,2.194,181.181h33.284l8.499-138.934        c0,0,7.523-30.847,0.227-45.938"
   id="path2684" />
					</g>
					<path
   style="fill:none;stroke:#161515;stroke-width:0.75;stroke-linejoin:round;stroke-miterlimit:10;"
   d="M324.708,352.824       c0,0-6.108-70.666-8.702-98.994"
   id="path2688" />
					
						<line
   style="fill:none;stroke:#161515;stroke-width:0.75;stroke-linejoin:round;stroke-miterlimit:10;"
   x1="314.752"
   y1="433.16"
   x2="322.53"
   y2="327.725"
   id="line2690" />
					<path
   style="fill:none;stroke:#161515;stroke-width:0.75;stroke-linejoin:round;stroke-miterlimit:10;"
   d="M338.045,264.751       c0,0-0.345,8.337,16.715,11.043"
   id="path2692" />
					<path
   style="fill:none;stroke:#161515;stroke-width:0.75;stroke-linejoin:round;stroke-miterlimit:10;"
   d="M283.319,275.795       c0,0,15.645-0.252,17.435-11.043"
   id="path2694" />
					
						<line
   style="fill:none;stroke:#161515;stroke-width:0.75;stroke-linejoin:round;stroke-miterlimit:10;"
   x1="286.297"
   y1="427.723"
   x2="319.999"
   y2="427.723"
   id="line2696" />
					
						<line
   style="fill:none;stroke:#161515;stroke-width:0.75;stroke-linejoin:round;stroke-miterlimit:10;"
   x1="332.404"
   y1="427.723"
   x2="368.461"
   y2="427.723"
   id="line2698" />
				</g>
				<path
   style="fill:#C96947;"
   d="M273.108,185.175c0,0-11.231,11.143-15.554,10.681c-7.178-0.767-47.522-30.363-47.522-30.363      l-7.6,7.346c0,0,33.295,45.002,51.286,47.047c15.546,1.767,36.505-16.863,36.505-16.863"
   id="path2702" />
				<g
   id="g2706">
					<path
   style="fill:#E0D5D1;"
   d="M314.017,163.719c0,0-14.838-2.99-29.383,7.112c-12.699,8.821-19.988,17.678-19.988,17.678       l19.674,22.282l23.518-19.563"
   id="path2704" />
				</g>
				<g
   id="g2716">
					<path
   style="fill:#FFB9A9;"
   d="M265.456,186.768c0,0,15.778,17.007,23.319,19.378c6.096,1.917,30.72-5.747,30.72-5.747       l6.983,10.741c-5.906,3.258-35.164,20.324-51.233,11.074c-13.42-7.725-25.625-18.9-25.625-18.9"
   id="path2708" />
					<g
   id="g2712">
						<path
   style="fill:#FFB9A9;"
   d="M313.367,202.981c2.895-1.494,6.988-3.349,9.856-4.893c1.395-0.751,4.252-2.331,4.865-1.918        c1.174,0.789-3.038,2.916-2.314,3.552c0.439,0.386,3.431-1.464,4.859-2.482c1.274-0.908,2.863-2.042,3.72-1.466        c0.743,0.5-6.649,5.963-6.649,5.963s8.299-5.08,9.137-4.345c1.208,1.06-7.811,6.528-7.811,6.528s7.917-4.569,8.811-3.784        c0.894,0.785-5.322,4.381-7.65,6.009c1.571-0.773,7.096-3.981,7.748-3.409c0.652,0.572-1.909,2.754-2.605,3.217        c-4.202,2.797-13.126,7.483-13.126,7.483"
   id="path2710" />
					</g>
					<path
   style="fill:none;stroke:#EA8F86;stroke-width:0.75;stroke-linejoin:round;stroke-miterlimit:10;"
   d="M328.208,206.701       c0,0-5.356-2.243-9.254,0.189"
   id="path2714" />
				</g>
				<g
   id="g2720">
					<path
   style="fill:#E0D5D1;"
   d="M313.823,164.18c0,0-20.64,1.622-27.457,38.083c-2.885,15.433-3.749,62.545-3.749,62.545       s39.25,2.559,76.716-0.056c0-15.801-4.401-55.37-8.844-74.934c-3.013-13.268-15.501-20.01-25.734-26.155"
   id="path2718" />
				</g>
				<g
   id="g2760">
					<g
   id="g2724">
						<path
   style="fill:#031628;"
   d="M310.12,133.687c-1.816,2.602-2.843,5.747-2.912,8.919c-0.052,2.392,0.614,5.065,2.654,6.314        c0.787,0.482,1.852,0.684,2.612,0.159c0.608-0.42,0.863-1.182,1.053-1.896c0.526-1.978,0.85-4.01,0.965-6.053        c0.071-1.269,0.06-2.559-0.273-3.786s-1.015-2.394-2.065-3.109"
   id="path2722" />
					</g>
					<path
   style="fill:#C96947;"
   d="M312.539,155.282l-0.177,8.898c0,0,0.737,3.207,6.794,3.372c7.688,0.21,9.214-3.89,9.214-3.89       l-1.449-16.513"
   id="path2726" />
					<g
   id="g2730">
						<path
   style="fill:#A35138;"
   d="M311.639,145.541c-0.095-0.463-0.702-0.633-1.157-0.505c-0.648,0.183-1.129,0.761-1.345,1.398        c-0.216,0.637-0.202,1.329-0.127,1.998c0.069,0.622,0.197,1.259,0.56,1.769c0.645,0.906,2.031,1.177,2.969,0.58"
   id="path2728" />
					</g>
					<path
   style="fill:#C96947;"
   d="M310.978,136.691c0,0-1.786,15.244,0.756,17.961c3.808,4.07,10.3,2.979,13.188,0.447       c2.422-2.124,4.398-11.424,4.055-13.856C328.049,134.643,313.963,132.729,310.978,136.691z"
   id="path2732" />
					<g
   id="g2736">
						<path
   style="fill:#031628;"
   d="M331.288,134.063c-0.818-1.459-0.891-3.366-1.815-4.778c-0.782-1.196-2.104-1.895-3.45-2.128        c-1.405-0.243-2.897-0.037-4.214-0.617c-0.836-0.368-1.532-1.027-2.342-1.458c-2.195-1.17-5.147-0.329-6.508,1.854        c-0.225,0.361-0.414,0.756-0.709,1.054c-0.666,0.671-1.676,0.684-2.571,0.886c-1.09,0.247-2.661,0.944-3.127,2.122        c-0.465,1.174-0.469,2.825,0.055,3.961c0.913,1.981,2.572,2.032,4.303,2.5c3.043,0.823,5.882-0.354,8.938-0.473        c1.304-0.051,3.401,0.078,4.267,1.149c1.323,1.637,1.763,3.776,2.006,5.842c0.269,2.292-0.805,6.342,0.85,8.159        c1.012-0.74,4.376-1.807,4.787-3.13c0.376-1.21-0.03-2.577,0.336-3.791c0.321-1.067,1.178-1.834,1.735-2.783        c1.103-1.88,0.867-4.542-0.547-6.166c-0.529-0.608-1.195-1.074-1.681-1.722C331.485,134.39,331.382,134.23,331.288,134.063z"
   id="path2734" />
					</g>
					<path
   style="fill:none;stroke:#77331E;stroke-width:0.75;stroke-linejoin:round;stroke-miterlimit:10;"
   d="M312.539,155.645       c3.971,2.398,8.206,1.727,10.086,0.997c3.523-1.367,3.867-4.79,3.867-4.79"
   id="path2738" />
					<path
   style="fill:none;stroke:#77331E;stroke-width:0.75;stroke-linejoin:round;stroke-miterlimit:10;"
   d="M316.777,143.285       c0,0-0.496,4.012-0.136,4.769c0.36,0.758,2.543,0.181,2.543,0.181"
   id="path2740" />
					<path
   style="fill:#031628;"
   d="M320.573,144.373c-0.03,0.387,0.182,0.719,0.474,0.742c0.292,0.023,0.554-0.272,0.585-0.658       c0.03-0.387-0.182-0.719-0.474-0.742C320.866,143.691,320.604,143.986,320.573,144.373z"
   id="path2742" />
					<path
   style="fill:#031628;"
   d="M312.364,143.666c-0.031,0.386,0.182,0.719,0.474,0.742c0.292,0.023,0.554-0.272,0.585-0.658       c0.031-0.387-0.182-0.719-0.474-0.742C312.656,142.984,312.395,143.279,312.364,143.666z"
   id="path2744" />
					<g
   id="g2748">
						<path
   style="fill:#031628;"
   d="M323.684,141.202c-0.104-0.178-0.212-0.353-0.325-0.526c-0.042-0.065-0.087-0.131-0.154-0.171        c-0.079-0.047-0.176-0.049-0.267-0.048c-0.733,0.006-1.466,0.094-2.179,0.262c-0.325,0.076-0.71,0.144-1.009,0.295        c-0.395,0.2-0.333,0.196-0.12,0.596c0.021,0.04,0.044,0.081,0.082,0.105c0.063,0.04,0.146,0.019,0.218-0.002        c1.169-0.343,2.407-0.447,3.617-0.305c0.063,0.007,0.141,0.008,0.171-0.048C323.744,141.314,323.716,141.257,323.684,141.202z        "
   id="path2746" />
					</g>
					<g
   id="g2752">
						<path
   style="fill:#031628;"
   d="M311.741,140.895c0.094-0.173,0.192-0.343,0.293-0.509c0.038-0.063,0.078-0.127,0.134-0.163        c0.066-0.043,0.144-0.04,0.218-0.035c0.589,0.041,1.172,0.165,1.736,0.367c0.257,0.092,0.562,0.178,0.793,0.343        c0.306,0.218,0.256,0.212,0.061,0.601c-0.02,0.039-0.04,0.079-0.072,0.101c-0.053,0.037-0.119,0.012-0.175-0.012        c-0.919-0.399-1.907-0.563-2.888-0.479c-0.051,0.004-0.114,0.001-0.135-0.056        C311.686,141.005,311.711,140.949,311.741,140.895z"
   id="path2750" />
					</g>
					<path
   style="fill:#FFFFFF;"
   d="M315.132,150.63h6.938c0,0,0.104,3.61-4.223,3.61C314.995,154.24,315.132,150.63,315.132,150.63       z"
   id="path2754" />
					<g
   id="g2758">
						<path
   style="fill:#C96947;"
   d="M325.547,146.935c0.243-0.587,1.216-1.442,1.812-1.462c0.597-0.02,1.185,0.258,1.661,0.663        c2.236,1.9,0.718,6.341-2.304,6.299c-1.109-0.015-1.016-1.494-1.016-1.494"
   id="path2756" />
					</g>
				</g>
				<path
   style="fill:none;stroke:#A89892;stroke-width:0.75;stroke-linejoin:round;stroke-miterlimit:10;"
   d="M285.266,210.005      c0,0,2.186-22.956,5.596-29.409"
   id="path2762" />
				<path
   style="fill:none;stroke:#A89892;stroke-width:0.75;stroke-linejoin:round;stroke-miterlimit:10;"
   d="M354.088,208.303      c0,0-2.713-21.254-6.122-27.707"
   id="path2764" />
			</g>
			<g
   id="g2883">
				<g
   id="g2776">
					<path
   style="fill:#FFB9A9;"
   d="M187.382,172.367c0,0-17.907,11.95-29.252,7.798c-8.342-3.053-25.314-28.567-25.314-28.567       l-13.191,5.614c3.45,6.713,20.054,44.932,40.75,46.376c17.285,1.206,37.343-8.901,37.343-8.901"
   id="path2768" />
					<g
   id="g2772">
						<path
   style="fill:#FFB9A9;"
   d="M136.895,157.822c-1.756-3.195-4.398-7.473-6.097-10.697c-0.827-1.569-2.493-4.819-3.32-4.819        c-1.582,0,1.001,4.605-0.069,4.743c-0.649,0.084-2.273-3.502-2.963-5.339c-0.615-1.639-1.384-3.684-2.539-3.684        c-1.002,0,2.451,9.688,2.451,9.688s-4.535-9.899-5.772-9.74c-1.784,0.23,3.178,10.939,3.178,10.939s-4.5-9.186-5.82-9.015        c-1.32,0.171,2.207,7.39,3.352,10.356c-0.976-1.698-4.104-8.128-5.066-8.003c-0.962,0.124,0.053,3.75,0.41,4.614        c2.156,5.221,7.517,15.144,7.517,15.144"
   id="path2770" />
					</g>
					<path
   style="fill:none;stroke:#EA8F86;stroke-width:0.75;stroke-linejoin:round;stroke-miterlimit:10;"
   d="M120.791,152.01       c0,0,6.374,1.261,8.475,5.954"
   id="path2774" />
				</g>
				<g
   id="g2834">
					<g
   id="g2790">
						<polygon
   style="fill:#2D2D2D;"
   points="266.036,451.888 236.848,451.888 237.036,448.313 266.223,448.313       "
   id="polygon2778" />
						<polyline
   style="fill:#FFB9A9;"
   points="263.006,412.703 263.71,437.218 262.325,448.313 243.268,436.206 241.003,409.882               "
   id="polyline2780" />
						<path
   style="fill:#FC9854;"
   d="M243.268,436.206c0,0-3.924,7.036-5.2,8.999c-1.276,1.963-1.071,3.842-1.071,3.842        s27.626,0,29.176,0c0.51-2.975-2.41-12.841-2.41-12.841S248.731,437.243,243.268,436.206z"
   id="path2782" />
						
							<line
   style="fill:none;stroke:#2D2D2D;stroke-linejoin:round;stroke-miterlimit:10;"
   x1="249.438"
   y1="438.589"
   x2="256.387"
   y2="438.589"
   id="line2784" />
						
							<line
   style="fill:none;stroke:#2D2D2D;stroke-linejoin:round;stroke-miterlimit:10;"
   x1="249.147"
   y1="440.948"
   x2="256.58"
   y2="440.948"
   id="line2786" />
						
							<line
   style="fill:none;stroke:#2D2D2D;stroke-linejoin:round;stroke-miterlimit:10;"
   x1="248.882"
   y1="443.306"
   x2="256.837"
   y2="443.306"
   id="line2788" />
					</g>
					<g
   id="g2804">
						<path
   style="fill:#2D2D2D;"
   d="M222.118,451.148l0.11-2.101h-38.856c-1.328,0-2.521-0.698-3.142-1.837l-0.232-0.042        l-0.177,3.378c-0.007,0.126,0.035,0.247,0.116,0.338l0.076,0.086c0.518,0.585,1.268,0.917,2.07,0.917h39.256        C221.748,451.888,222.096,451.557,222.118,451.148z"
   id="path2792" />
						<path
   style="fill:#FFB9A9;"
   d="M220.829,412.703l-0.082,24.327l-0.373,11.283h-37.813c-0.875,0-1.547-0.709-1.502-1.585l0,0        c0.034-0.655,0.469-1.243,1.093-1.479l17.779-8.131l-4.027-27.237"
   id="path2794" />
						<path
   style="fill:#FC9854;"
   d="M199.743,435.548l-18.52,9.657c-0.691,0.295-1.176,1.033-1.219,1.855l0,0        c-0.058,1.098,1.026,1.987,1.993,1.987h40.232l-1.224-12.278C221.004,436.769,206.902,439.698,199.743,435.548z"
   id="path2796" />
						
							<line
   style="fill:none;stroke:#2D2D2D;stroke-linejoin:round;stroke-miterlimit:10;"
   x1="189.388"
   y1="440.948"
   x2="191.784"
   y2="445.477"
   id="line2798" />
						
							<line
   style="fill:none;stroke:#2D2D2D;stroke-linejoin:round;stroke-miterlimit:10;"
   x1="192.424"
   y1="439.37"
   x2="194.82"
   y2="443.899"
   id="line2800" />
						
							<line
   style="fill:none;stroke:#2D2D2D;stroke-linejoin:round;stroke-miterlimit:10;"
   x1="195.46"
   y1="437.793"
   x2="197.856"
   y2="442.322"
   id="line2802" />
					</g>
					<path
   style="fill:#4063D9;"
   d="M204.884,229.242l-6.391,3.147l-3.291,10.163c-5.285,8.123-13.229,24.256-12.421,46.991       c1.201,33.79,12.203,133.522,12.203,133.522h27.506l1.295-152.397l-0.152-52.844"
   id="path2806" />
					<path
   style="fill:#4063D9;"
   d="M244.797,231.073c0,0,1.347,3.702,3.332,9.51c5.531,6.565,13.085,17.845,16.03,32.997       c5.863,30.166,2.474,149.485,2.474,149.485h-26.696L217.88,270.054c0,0-3.804-12.928-2.675-34.475"
   id="path2808" />
					<g
   id="g2832">
						<path
   style="fill:none;stroke:#4DA3F7;stroke-width:0.75;stroke-linejoin:round;stroke-miterlimit:10;"
   d="M223.328,307.843        c-1.553-16.162-7.228-42.078-7.521-62.013"
   id="path2810" />
						<path
   style="fill:none;stroke:#4DA3F7;stroke-width:0.75;stroke-linejoin:round;stroke-miterlimit:10;"
   d="M195.205,242.554        c0,0,15.913,8.549,52.921-1.972"
   id="path2812" />
						<path
   style="fill:none;stroke:#4DA3F7;stroke-width:0.75;stroke-linejoin:round;stroke-miterlimit:10;"
   d="M211.643,245.77        l-1.007-0.062c-1.177-0.072-2.02-1.09-1.883-2.27l0.39-3.343c0.131-1.125,1.11-2,2.237-2h2.086"
   id="path2814" />
						<path
   style="fill:#4DA3F7;"
   d="M213.934,242.118c-0.044,0.848-0.661,1.536-1.377,1.536c-0.716,0-1.261-0.688-1.216-1.536        c0.044-0.848,0.661-1.536,1.377-1.536C213.434,240.582,213.979,241.27,213.934,242.118z"
   id="path2816" />
						<path
   style="fill:none;stroke:#4DA3F7;stroke-width:0.75;stroke-linejoin:round;stroke-miterlimit:10;"
   d="M232.634,244.165        c0.014-0.264-1.665-7.737-1.665-7.737"
   id="path2818" />
						<path
   style="fill:none;stroke:#4DA3F7;stroke-width:0.75;stroke-linejoin:round;stroke-miterlimit:10;"
   d="M199.829,244.165        c-0.194-0.204,2.602-8.055,2.602-8.055"
   id="path2820" />
						<path
   style="fill:none;stroke:#4DA3F7;stroke-width:0.75;stroke-linejoin:round;stroke-miterlimit:10;"
   d="M243.083,241.933        c0,0,9.305,10.711,12.949,29.741c3.644,19.03,5.67,151.391,5.67,151.391"
   id="path2822" />
						<path
   style="fill:none;stroke:#4DA3F7;stroke-width:0.75;stroke-linejoin:round;stroke-miterlimit:10;"
   d="M229.424,244.682        c0,0,0.707,7.73,18.271,4.101"
   id="path2824" />
						<path
   style="fill:none;stroke:#4DA3F7;stroke-width:0.75;stroke-linejoin:round;stroke-miterlimit:10;"
   d="M192.422,247.217        c0,0,8.07,3.747,10.663-1.447"
   id="path2826" />
						<path
   style="fill:none;stroke:#4DA3F7;stroke-width:0.75;stroke-linejoin:round;stroke-miterlimit:10;"
   d="M210.635,245.708        c0,0-0.105,18.2,1.395,19.783s5.749,2.303,5.749,2.303"
   id="path2828" />
						<path
   style="fill:none;stroke:#4DA3F7;stroke-width:0.75;stroke-linejoin:round;stroke-miterlimit:10;"
   d="M220.34,421.88        c0,0-1.904-114.185,0.063-135.117"
   id="path2830" />
					</g>
				</g>
				<g
   id="g2858">
					<g
   id="g2838">
						<path
   style="fill:#FC9854;"
   d="M251.161,183.746c-3.594-5.348-23.341-17.324-23.341-17.324        c-6.211-0.776-13.302-0.603-13.302-0.603s-8.016,8.644-14.791,18.334c-5.644,5.644-6.284,12.706-6.169,18.54        c0.164,8.307,3.042,20.292,3.721,33.417c11.32,4.115,32.585,3.175,48.711-1.451        C245.99,234.66,254.755,189.094,251.161,183.746z"
   id="path2836" />
					</g>
					<path
   style="fill:#FC9854;"
   d="M214.517,165.819c0,0-10.935-2.353-27.209,5.563c-12.265,5.965-14.286,7.356-14.286,7.356       L182.497,202l26.539-11.609"
   id="path2840" />
					<g
   id="g2844">
						<path
   style="fill:#C96947;"
   d="M210.031,165.493c-1.825,2.105-8.63,4.568-9.467,4.15c-0.837-0.419,1.733-2.49,2.037-3.035        c-2.109,0.09-3.964,0.491-5.341,0.969c-1.725,0.599-3.585,1.065-5.28,1.744c1.125-1.65,3.781-3.758,4.807-4.236        C200.786,163.223,206.093,163.141,210.031,165.493"
   id="path2842" />
					</g>
					<path
   style="fill:#FC9854;"
   d="M239.107,195.698l17.049,14.984l16.354-17.166c0,0-8.168-8.286-15.755-15.873       c-14.901-14.901-28.936-11.221-28.936-11.221"
   id="path2846" />
					
						<line
   style="fill:none;stroke:#AF3519;stroke-width:0.75;stroke-linejoin:round;stroke-miterlimit:10;"
   x1="250.658"
   y1="205.85"
   x2="240.418"
   y2="196.85"
   id="line2848" />
					<path
   style="fill:none;stroke:#AF3519;stroke-width:0.75;stroke-linejoin:round;stroke-miterlimit:10;"
   d="M193.933,196.63       c0,0,0.93-7.613,5.794-12.477"
   id="path2850" />
					
						<line
   style="fill:none;stroke:#AF3519;stroke-width:0.75;stroke-linejoin:round;stroke-miterlimit:10;"
   x1="176.933"
   y1="176.573"
   x2="186.166"
   y2="200.395"
   id="line2852" />
					
						<line
   style="fill:none;stroke:#AF3519;stroke-width:0.75;stroke-linejoin:round;stroke-miterlimit:10;"
   x1="253.448"
   y1="208.303"
   x2="269.424"
   y2="190.391"
   id="line2854" />
					<path
   style="fill:none;stroke:#AF3519;stroke-width:0.75;stroke-linejoin:round;stroke-miterlimit:10;"
   d="M212.935,165.803       c0,0-2.61,6.469,5.971,6.997c10.045,0.618,11.04-6.46,11.04-6.46"
   id="path2856" />
				</g>
				<g
   id="g2881">
					<path
   style="fill:#FFB9A9;"
   d="M215.13,156.822l-0.674,9.896c0,0-0.748,4.114,5.62,4.114c5.742,0,7.743-4.409,7.743-4.409       l-1.615-14.425"
   id="path2860" />
					<path
   id="XMLID_5_"
   style="fill:#FFB9A9;"
   d="M211.566,134.059c-2.745,6.006-6.723,18.633-0.016,23.555       c1.544,1.133,4.083,1.287,6.782,0.547c5.848-1.605,9.953-5.555,11.409-9.34C231.57,144.067,220.867,124.464,211.566,134.059z" />
					<path
   style="fill:#FFFFFF;"
   d="M211.915,152.447l6.733-0.45c0,0-1.033,3.367-3.962,3.367       C211.756,155.364,211.915,152.447,211.915,152.447z"
   id="path2863" />
					<g
   id="g2867">
						<path
   style="fill:#2D2D2D;"
   d="M236.352,136.504c0.861,1.027,1.945,1.815,3.496,2.288c2.48,0.756,4.045,1.302,5.446,3.682        c1.4,2.378,1.11,6.476,3.715,7.677c2.465,1.137,5.506-0.149,7.147,2.714c-0.861,3.374-6.647,12.348-8.87,15.42        c-1.916-1.916-2.766-2.313-4.837-2.754c-1.633-0.349-3.371-0.111-4.96-0.627c-1.448-0.47-2.651-1.544-3.472-2.826        c-0.533-0.833-0.928-1.768-1.607-2.489c-0.966-1.027-2.378-1.487-3.741-1.848c-0.86-0.228-1.749-0.441-2.482-0.947        c-1.673-1.152-2.097-3.105-2.202-4.96c-0.135-2.383-0.115-4.755-0.11-7.141c0.006-2.567-2.429-3.788-3.926-5.46        c-0.198-0.221-2.952-4.032-2.441-4.224c-2.404,0.903-6.831,2.512-8.711,4.261c-2.135-4.896,1.755-10.687,7.387-10.345        c0.814,0.049,2.39-0.984,3.295-1.161c1.163-0.227,2.355-0.29,3.536-0.217c2.404,0.147,4.779,0.852,6.897,1.994        c1.663,0.897,3.783,2.242,4.634,4C235.09,134.661,235.647,135.662,236.352,136.504z"
   id="path2865" />
					</g>
					<path
   id="XMLID_401_"
   style="fill:none;stroke:#EA8F86;stroke-width:0.75;stroke-linejoin:round;stroke-miterlimit:10;"
   d="       M214.294,144.444c0,0-3.079,3.723-2.682,4.702c0.397,0.979,2.593,0.85,2.593,0.85" />
					<g
   id="XMLID_399_">
						<path
   id="XMLID_400_"
   style="fill:#031628;"
   d="M218.817,145.171c0.029,0.062,0.055,0.128,0.076,0.191        c0.154,0.469,0.044,0.879-0.018,1.351c-0.099,0.752-1.343,0.494-1.164-0.266c0.109-0.467,0.245-0.965,0.497-1.377        C218.456,144.665,218.68,144.882,218.817,145.171z" />
					</g>
					<g
   id="XMLID_395_">
						<path
   id="XMLID_397_"
   style="fill:#031628;"
   d="M211.419,143.004c0.017,0.067,0.029,0.136,0.037,0.202        c0.06,0.489-0.126,0.871-0.278,1.322c-0.242,0.719-1.413,0.226-1.091-0.486c0.198-0.437,0.427-0.899,0.754-1.255        C211.162,142.437,211.34,142.693,211.419,143.004z" />
					</g>
					<path
   id="XMLID_391_"
   style="fill:#031628;"
   d="M221.78,145.068c0,0,0.081-0.351-0.036-0.913       c-0.114-0.539-0.486-1.216-1.055-1.71c-0.571-0.488-1.329-0.76-1.913-0.721c-0.291,0.006-0.524,0.109-0.669,0.17       c-0.147,0.084-0.214,0.144-0.214,0.144s0.097,0.028,0.239,0.055c0.145,0.029,0.335,0.118,0.541,0.214       c0.414,0.202,0.897,0.534,1.347,0.922c0.45,0.385,0.872,0.82,1.195,1.187c0.146,0.181,0.315,0.33,0.398,0.463       C221.711,145.002,221.78,145.068,221.78,145.068z" />
					<path
   id="XMLID_385_"
   style="fill:#031628;"
   d="M213.558,141.178c0,0-0.012-0.075-0.051-0.187       c-0.037-0.095-0.136-0.295-0.295-0.437c-0.311-0.322-0.913-0.524-1.482-0.463c-0.572,0.059-1.085,0.361-1.352,0.691       c-0.271,0.335-0.312,0.628-0.312,0.628s0.078-0.011,0.188-0.04c0.104-0.037,0.273-0.053,0.44-0.088       c0.342-0.065,0.748-0.131,1.143-0.167c0.393-0.044,0.779-0.066,1.106-0.038C213.26,141.081,213.559,141.191,213.558,141.178z" />
					<path
   style="fill:none;stroke:#EA8F86;stroke-width:0.75;stroke-linejoin:round;stroke-miterlimit:10;"
   d="M223.143,156.35       c0,0-3.293,2.578-8.156,2.578"
   id="path2876" />
					<g
   id="XMLID_376_">
						<path
   style="fill:#FFB9A9;"
   d="M222.995,148.123c0.876-2.349,3.301-1.587,3.899-0.996c0.431,0.426,0.539,1.082,0.52,1.688        c-0.049,1.519-0.793,3.002-1.981,3.95c-0.424,0.339-0.915,0.617-1.453,0.694c-1.511,0.217-2.307-1.024-2.152-2.285"
   id="path2878" />
					</g>
				</g>
			</g>
		</g>
		<g
   id="g2891">
			
			
				
		</g>
	</g>
</g>
<g
   id="DESIGNED_BY_FREEPIK">
	
</g>
</svg>
